<svg width="32" height="34" viewBox="0 0 32 34" fill="none" xmlns="http://www.w3.org/2000/svg"><path d="M0.000 1.520 L 0.000 2.507 2.413 2.508 C 4.639 2.509,4.843 2.517,5.042 2.607 C 5.304 2.726,5.525 2.977,5.600 3.242 C 5.630 3.351,6.339 7.742,7.174 13.001 C 8.066 18.616,8.736 22.684,8.797 22.858 C 9.091 23.695,9.770 24.372,10.628 24.686 L 11.013 24.827 19.613 24.841 L 28.213 24.855 28.213 23.868 L 28.213 22.881 19.800 22.867 L 11.387 22.853 11.173 22.742 C 10.761 22.527,10.691 22.353,10.481 21.035 C 10.378 20.387,10.293 19.829,10.293 19.795 C 10.293 19.749,12.266 19.733,18.227 19.731 C 24.623 19.730,26.238 19.716,26.561 19.658 C 27.430 19.503,28.164 19.094,28.815 18.402 C 29.503 17.671,29.504 17.667,30.669 13.120 C 31.229 10.935,31.700 9.038,31.716 8.905 C 31.781 8.365,31.453 7.625,30.977 7.240 C 30.679 6.998,30.491 6.907,30.144 6.833 C 29.941 6.790,26.833 6.773,19.042 6.773 L 8.222 6.773 8.192 6.627 C 8.175 6.546,8.031 5.652,7.870 4.640 C 7.567 2.730,7.471 2.343,7.196 1.913 C 6.970 1.561,6.435 1.074,6.048 0.868 C 5.430 0.540,5.360 0.533,2.549 0.533 L 0.000 0.533 0.000 1.520 M29.685 8.893 C 29.670 8.945,29.235 10.643,28.718 12.667 C 28.141 14.930,27.726 16.455,27.641 16.628 C 27.473 16.966,27.106 17.322,26.714 17.529 L 26.427 17.680 18.187 17.680 L 9.948 17.680 9.277 13.467 C 8.908 11.149,8.589 9.151,8.569 9.027 L 8.532 8.800 19.123 8.800 C 29.185 8.800,29.712 8.805,29.685 8.893 M13.173 27.259 C 12.019 27.384,11.034 28.293,10.719 29.525 C 10.438 30.622,10.724 31.641,11.542 32.458 C 12.157 33.073,12.762 33.333,13.573 33.333 C 14.312 33.333,14.930 33.091,15.481 32.586 C 15.920 32.184,16.169 31.810,16.355 31.274 C 16.477 30.921,16.500 30.763,16.501 30.293 C 16.502 29.378,16.244 28.732,15.625 28.105 C 15.236 27.710,14.569 27.334,14.174 27.286 C 13.693 27.227,13.508 27.222,13.173 27.259 M26.133 27.264 C 25.098 27.369,24.105 28.221,23.752 29.307 C 23.568 29.872,23.557 30.675,23.726 31.200 C 23.886 31.700,24.191 32.180,24.576 32.540 C 25.729 33.620,27.444 33.602,28.559 32.498 C 29.155 31.908,29.431 31.294,29.479 30.453 C 29.529 29.568,29.269 28.827,28.686 28.189 C 28.012 27.451,27.196 27.155,26.133 27.264 M13.975 29.334 C 14.776 29.743,14.629 31.073,13.757 31.307 C 13.200 31.457,12.638 30.941,12.641 30.282 C 12.644 29.487,13.326 29.003,13.975 29.334 M27.063 29.407 C 27.329 29.610,27.467 29.903,27.467 30.266 C 27.467 30.629,27.378 30.852,27.143 31.081 C 26.554 31.655,25.605 31.169,25.601 30.290 C 25.599 29.939,25.817 29.530,26.098 29.358 C 26.396 29.175,26.785 29.195,27.063 29.407 " stroke="none" fill-rule="evenodd" fill="black"></path></svg>